# xmcd
#
# Track frame offsets: 
#        182
#        10707
#        26242
#        41595
#        57872
#        72032
#        83512
#        104715
#        156305
#        163632
#        175125
#        192630
#        211217
#        229682
#        244305
#        259145
#
# Disc length: 3982 seconds
#
# Revision: 2
# Processed by: cddbd v1.5.2PL0 Copyright (c) Steve Scherf et al.
# Submitted via: ExactAudioCopyFreeDBPlugin 1.0
#
DISCID=d80f8c10
DTITLE=Alexis Korner - Alexis Korner and The Collection
DYEAR=1986
DGENRE=British Rock
TTITLE0=She Fooled Me
TTITLE1=Hoochie Coochie Man
TTITLE2=Oh Lord Don't Let Them Drop That Atomic Bomb On Me
TTITLE3=I Got A Woman
TTITLE4=Corina Corina
TTITLE5=Everyday I Have The Blues
TTITLE6=Operator
TTITLE7=Rosie
TTITLE8=Polly Put The Kettle On
TTITLE9=I See It
TTITLE10=You Don't Miss Your Water Till Your Well Runs Dry
TTITLE11=Mighty Mighty Spade And Whitey
TTITLE12=Lo And Behold
TTITLE13=Louisiana Blues
TTITLE14=Oo Whee Baby
TTITLE15=Rock Me Baby
EXTD=
EXTT0=
EXTT1=
EXTT2=
EXTT3=
EXTT4=
EXTT5=
EXTT6=
EXTT7=
EXTT8=
EXTT9=
EXTT10=
EXTT11=
EXTT12=
EXTT13=
EXTT14=
EXTT15=
PLAYORDER=
